<svg width="42" height="10" viewBox="0 0 42 10" fill="none" xmlns="http://www.w3.org/2000/svg">
<path d="M8.28099 9.256L8.26799 3.796L5.58999 8.294H4.64099L1.97599 3.913V9.256H-9.95398e-06V0.155996H1.74199L5.14799 5.811L8.50199 0.155996H10.231L10.257 9.256H8.28099ZM17.473 9.412C16.5283 9.412 15.6747 9.20833 14.912 8.801C14.158 8.39366 13.5643 7.83466 13.131 7.124C12.7063 6.40466 12.494 5.59866 12.494 4.706C12.494 3.81333 12.7063 3.01166 13.131 2.301C13.5643 1.58166 14.158 1.01833 14.912 0.610996C15.6747 0.203663 16.5283 -3.45707e-06 17.473 -3.45707e-06C18.4177 -3.45707e-06 19.267 0.203663 20.021 0.610996C20.775 1.01833 21.3687 1.58166 21.802 2.301C22.2353 3.01166 22.452 3.81333 22.452 4.706C22.452 5.59866 22.2353 6.40466 21.802 7.124C21.3687 7.83466 20.775 8.39366 20.021 8.801C19.267 9.20833 18.4177 9.412 17.473 9.412ZM17.473 7.618C18.0103 7.618 18.4957 7.49666 18.929 7.254C19.3623 7.00266 19.7003 6.656 19.943 6.214C20.1943 5.772 20.32 5.26933 20.32 4.706C20.32 4.14266 20.1943 3.64 19.943 3.198C19.7003 2.756 19.3623 2.41366 18.929 2.171C18.4957 1.91966 18.0103 1.794 17.473 1.794C16.9357 1.794 16.4503 1.91966 16.017 2.171C15.5837 2.41366 15.2413 2.756 14.99 3.198C14.7473 3.64 14.626 4.14266 14.626 4.706C14.626 5.26933 14.7473 5.772 14.99 6.214C15.2413 6.656 15.5837 7.00266 16.017 7.254C16.4503 7.49666 16.9357 7.618 17.473 7.618ZM30.4828 9.256L28.7278 6.721H28.6238H26.7908V9.256H24.6848V0.155996H28.6238C29.4298 0.155996 30.1274 0.290329 30.7168 0.558996C31.3148 0.827663 31.7741 1.209 32.0948 1.703C32.4154 2.197 32.5758 2.782 32.5758 3.458C32.5758 4.134 32.4111 4.719 32.0818 5.213C31.7611 5.69833 31.3018 6.071 30.7038 6.331L32.7448 9.256H30.4828ZM30.4438 3.458C30.4438 2.94666 30.2791 2.55666 29.9498 2.288C29.6204 2.01066 29.1394 1.872 28.5068 1.872H26.7908V5.044H28.5068C29.1394 5.044 29.6204 4.90533 29.9498 4.628C30.2791 4.35066 30.4438 3.96066 30.4438 3.458ZM41.9403 7.566V9.256H34.8943V0.155996H41.7713V1.846H36.9873V3.822H41.2123V5.46H36.9873V7.566H41.9403Z" fill="black" fill-opacity="0.6"/>
</svg>
