<svg width="85" height="10" viewBox="0 0 85 10" fill="none" xmlns="http://www.w3.org/2000/svg">
<path d="M8.281 9.256L8.268 3.796L5.59 8.294H4.641L1.976 3.913V9.256H5.96046e-08V0.155996H1.742L5.148 5.811L8.502 0.155996H10.231L10.257 9.256H8.281ZM17.473 9.412C16.5283 9.412 15.6747 9.20833 14.912 8.801C14.158 8.39366 13.5643 7.83466 13.131 7.124C12.7063 6.40466 12.494 5.59866 12.494 4.706C12.494 3.81333 12.7063 3.01166 13.131 2.301C13.5643 1.58166 14.158 1.01833 14.912 0.610996C15.6747 0.203663 16.5283 -3.45707e-06 17.473 -3.45707e-06C18.4177 -3.45707e-06 19.267 0.203663 20.021 0.610996C20.775 1.01833 21.3687 1.58166 21.802 2.301C22.2353 3.01166 22.452 3.81333 22.452 4.706C22.452 5.59866 22.2353 6.40466 21.802 7.124C21.3687 7.83466 20.775 8.39366 20.021 8.801C19.267 9.20833 18.4177 9.412 17.473 9.412ZM17.473 7.618C18.0103 7.618 18.4957 7.49666 18.929 7.254C19.3623 7.00266 19.7003 6.656 19.943 6.214C20.1943 5.772 20.32 5.26933 20.32 4.706C20.32 4.14266 20.1943 3.64 19.943 3.198C19.7003 2.756 19.3623 2.41366 18.929 2.171C18.4957 1.91966 18.0103 1.794 17.473 1.794C16.9357 1.794 16.4503 1.91966 16.017 2.171C15.5837 2.41366 15.2413 2.756 14.99 3.198C14.7473 3.64 14.626 4.14266 14.626 4.706C14.626 5.26933 14.7473 5.772 14.99 6.214C15.2413 6.656 15.5837 7.00266 16.017 7.254C16.4503 7.49666 16.9357 7.618 17.473 7.618ZM27.6748 9.412C26.9554 9.412 26.2578 9.31666 25.5818 9.126C24.9144 8.92666 24.3771 8.671 23.9698 8.359L24.6848 6.773C25.0748 7.059 25.5384 7.28866 26.0758 7.462C26.6131 7.63533 27.1504 7.722 27.6878 7.722C28.2858 7.722 28.7278 7.63533 29.0138 7.462C29.2998 7.28 29.4428 7.04166 29.4428 6.747C29.4428 6.53033 29.3561 6.35266 29.1828 6.214C29.0181 6.06666 28.8014 5.94966 28.5328 5.863C28.2728 5.77633 27.9174 5.681 27.4668 5.577C26.7734 5.41233 26.2058 5.24766 25.7638 5.083C25.3218 4.91833 24.9404 4.654 24.6198 4.29C24.3078 3.926 24.1518 3.44066 24.1518 2.834C24.1518 2.30533 24.2948 1.82866 24.5808 1.404C24.8668 0.970663 25.2958 0.62833 25.8678 0.376996C26.4484 0.125663 27.1548 -3.45707e-06 27.9868 -3.45707e-06C28.5674 -3.45707e-06 29.1351 0.0693298 29.6898 0.207996C30.2444 0.346663 30.7298 0.545996 31.1458 0.805996L30.4958 2.405C29.6551 1.92833 28.8144 1.69 27.9738 1.69C27.3844 1.69 26.9468 1.78533 26.6608 1.976C26.3834 2.16666 26.2448 2.418 26.2448 2.73C26.2448 3.042 26.4051 3.276 26.7258 3.432C27.0551 3.57933 27.5534 3.72666 28.2208 3.874C28.9141 4.03866 29.4818 4.20333 29.9238 4.368C30.3658 4.53266 30.7428 4.79266 31.0548 5.148C31.3754 5.50333 31.5358 5.98433 31.5358 6.591C31.5358 7.111 31.3884 7.58766 31.0938 8.021C30.8078 8.44566 30.3744 8.78366 29.7938 9.035C29.2131 9.28633 28.5068 9.412 27.6748 9.412ZM35.3829 1.872H32.4709V0.155996H40.4009V1.872H37.4889V9.256H35.3829V1.872ZM50.5586 9.412C49.2586 9.412 48.2446 9.05233 47.5166 8.333C46.7973 7.61366 46.4376 6.58666 46.4376 5.252V0.155996H48.5436V5.174C48.5436 6.80333 49.2196 7.618 50.5716 7.618C51.2303 7.618 51.733 7.423 52.0796 7.033C52.4263 6.63433 52.5996 6.01466 52.5996 5.174V0.155996H54.6796V5.252C54.6796 6.58666 54.3156 7.61366 53.5876 8.333C52.8683 9.05233 51.8586 9.412 50.5586 9.412ZM60.4007 9.412C59.6814 9.412 58.9837 9.31666 58.3077 9.126C57.6404 8.92666 57.1031 8.671 56.6957 8.359L57.4107 6.773C57.8007 7.059 58.2644 7.28866 58.8017 7.462C59.3391 7.63533 59.8764 7.722 60.4137 7.722C61.0117 7.722 61.4537 7.63533 61.7397 7.462C62.0257 7.28 62.1687 7.04166 62.1687 6.747C62.1687 6.53033 62.0821 6.35266 61.9087 6.214C61.7441 6.06666 61.5274 5.94966 61.2587 5.863C60.9987 5.77633 60.6434 5.681 60.1927 5.577C59.4994 5.41233 58.9317 5.24766 58.4897 5.083C58.0477 4.91833 57.6664 4.654 57.3457 4.29C57.0337 3.926 56.8777 3.44066 56.8777 2.834C56.8777 2.30533 57.0207 1.82866 57.3067 1.404C57.5927 0.970663 58.0217 0.62833 58.5937 0.376996C59.1744 0.125663 59.8807 -3.45707e-06 60.7127 -3.45707e-06C61.2934 -3.45707e-06 61.8611 0.0693298 62.4157 0.207996C62.9704 0.346663 63.4557 0.545996 63.8717 0.805996L63.2217 2.405C62.3811 1.92833 61.5404 1.69 60.6997 1.69C60.1104 1.69 59.6727 1.78533 59.3867 1.976C59.1094 2.16666 58.9707 2.418 58.9707 2.73C58.9707 3.042 59.1311 3.276 59.4517 3.432C59.7811 3.57933 60.2794 3.72666 60.9467 3.874C61.6401 4.03866 62.2077 4.20333 62.6497 4.368C63.0917 4.53266 63.4687 4.79266 63.7807 5.148C64.1014 5.50333 64.2617 5.98433 64.2617 6.591C64.2617 7.111 64.1144 7.58766 63.8197 8.021C63.5337 8.44566 63.1004 8.78366 62.5197 9.035C61.9391 9.28633 61.2327 9.412 60.4007 9.412ZM73.3968 7.566V9.256H66.3508V0.155996H73.2278V1.846H68.4438V3.822H72.6688V5.46H68.4438V7.566H73.3968ZM75.7225 0.155996H79.8565C80.8445 0.155996 81.7155 0.346663 82.4695 0.727996C83.2321 1.10066 83.8215 1.62933 84.2375 2.314C84.6621 2.99866 84.8745 3.796 84.8745 4.706C84.8745 5.616 84.6621 6.41333 84.2375 7.098C83.8215 7.78266 83.2321 8.31566 82.4695 8.697C81.7155 9.06966 80.8445 9.256 79.8565 9.256H75.7225V0.155996ZM79.7525 7.527C80.6625 7.527 81.3861 7.27566 81.9235 6.773C82.4695 6.26166 82.7425 5.57266 82.7425 4.706C82.7425 3.83933 82.4695 3.15466 81.9235 2.652C81.3861 2.14066 80.6625 1.885 79.7525 1.885H77.8285V7.527H79.7525Z" fill="black" fill-opacity="0.6"/>
</svg>
