<svg width="50" height="10" viewBox="0 0 50 10" fill="none" xmlns="http://www.w3.org/2000/svg">
<path d="M5.798 9.256L4.043 6.721H3.939H2.106V9.256H5.96046e-08V0.155996H3.939C4.745 0.155996 5.44267 0.290329 6.032 0.558996C6.63 0.827663 7.08933 1.209 7.41 1.703C7.73067 2.197 7.891 2.782 7.891 3.458C7.891 4.134 7.72633 4.719 7.397 5.213C7.07633 5.69833 6.617 6.071 6.019 6.331L8.06 9.256H5.798ZM5.759 3.458C5.759 2.94666 5.59433 2.55666 5.265 2.288C4.93567 2.01066 4.45467 1.872 3.822 1.872H2.106V5.044H3.822C4.45467 5.044 4.93567 4.90533 5.265 4.628C5.59433 4.35066 5.759 3.96066 5.759 3.458ZM17.2556 7.566V9.256H10.2096V0.155996H17.0866V1.846H12.3026V3.822H16.5276V5.46H12.3026V7.566H17.2556ZM22.5712 9.412C21.8519 9.412 21.1542 9.31666 20.4782 9.126C19.8109 8.92666 19.2736 8.671 18.8662 8.359L19.5812 6.773C19.9712 7.059 20.4349 7.28866 20.9722 7.462C21.5096 7.63533 22.0469 7.722 22.5842 7.722C23.1822 7.722 23.6242 7.63533 23.9102 7.462C24.1962 7.28 24.3392 7.04166 24.3392 6.747C24.3392 6.53033 24.2526 6.35266 24.0792 6.214C23.9146 6.06666 23.6979 5.94966 23.4292 5.863C23.1692 5.77633 22.8139 5.681 22.3632 5.577C21.6699 5.41233 21.1022 5.24766 20.6602 5.083C20.2182 4.91833 19.8369 4.654 19.5162 4.29C19.2042 3.926 19.0482 3.44066 19.0482 2.834C19.0482 2.30533 19.1912 1.82866 19.4772 1.404C19.7632 0.970663 20.1922 0.62833 20.7642 0.376996C21.3449 0.125663 22.0512 -3.45707e-06 22.8832 -3.45707e-06C23.4639 -3.45707e-06 24.0316 0.0693298 24.5862 0.207996C25.1409 0.346663 25.6262 0.545996 26.0422 0.805996L25.3922 2.405C24.5516 1.92833 23.7109 1.69 22.8702 1.69C22.2809 1.69 21.8432 1.78533 21.5572 1.976C21.2799 2.16666 21.1412 2.418 21.1412 2.73C21.1412 3.042 21.3016 3.276 21.6222 3.432C21.9516 3.57933 22.4499 3.72666 23.1172 3.874C23.8106 4.03866 24.3782 4.20333 24.8202 4.368C25.2622 4.53266 25.6392 4.79266 25.9512 5.148C26.2719 5.50333 26.4322 5.98433 26.4322 6.591C26.4322 7.111 26.2849 7.58766 25.9902 8.021C25.7042 8.44566 25.2709 8.78366 24.6902 9.035C24.1096 9.28633 23.4032 9.412 22.5712 9.412ZM28.5213 0.155996H30.6273V9.256H28.5213V0.155996ZM40.8079 7.54V9.256H32.8519V7.891L37.8439 1.872H32.9559V0.155996H40.6129V1.521L35.6339 7.54H40.8079ZM49.8546 7.566V9.256H42.8086V0.155996H49.6856V1.846H44.9016V3.822H49.1266V5.46H44.9016V7.566H49.8546Z" fill="black" fill-opacity="0.6"/>
</svg>
