<svg width="56" height="10" viewBox="0 0 56 10" fill="none" xmlns="http://www.w3.org/2000/svg">
<path d="M5.79801 9.256L4.04301 6.721H3.93901H2.10601V9.256H5.30481e-06V0.155996H3.93901C4.74501 0.155996 5.44267 0.290329 6.03201 0.558996C6.63001 0.827663 7.08934 1.209 7.41001 1.703C7.73067 2.197 7.89101 2.782 7.89101 3.458C7.89101 4.134 7.72634 4.719 7.39701 5.213C7.07634 5.69833 6.61701 6.071 6.01901 6.331L8.06001 9.256H5.79801ZM5.75901 3.458C5.75901 2.94666 5.59434 2.55666 5.26501 2.288C4.93567 2.01066 4.45467 1.872 3.82201 1.872H2.10601V5.044H3.82201C4.45467 5.044 4.93567 4.90533 5.26501 4.628C5.59434 4.35066 5.75901 3.96066 5.75901 3.458ZM14.6166 9.412C13.6719 9.412 12.8182 9.20833 12.0556 8.801C11.3016 8.39366 10.7079 7.83466 10.2746 7.124C9.84991 6.40466 9.63758 5.59866 9.63758 4.706C9.63758 3.81333 9.84991 3.01166 10.2746 2.301C10.7079 1.58166 11.3016 1.01833 12.0556 0.610996C12.8182 0.203663 13.6719 -3.45707e-06 14.6166 -3.45707e-06C15.5612 -3.45707e-06 16.4106 0.203663 17.1646 0.610996C17.9186 1.01833 18.5122 1.58166 18.9456 2.301C19.3789 3.01166 19.5956 3.81333 19.5956 4.706C19.5956 5.59866 19.3789 6.40466 18.9456 7.124C18.5122 7.83466 17.9186 8.39366 17.1646 8.801C16.4106 9.20833 15.5612 9.412 14.6166 9.412ZM14.6166 7.618C15.1539 7.618 15.6392 7.49666 16.0726 7.254C16.5059 7.00266 16.8439 6.656 17.0866 6.214C17.3379 5.772 17.4636 5.26933 17.4636 4.706C17.4636 4.14266 17.3379 3.64 17.0866 3.198C16.8439 2.756 16.5059 2.41366 16.0726 2.171C15.6392 1.91966 15.1539 1.794 14.6166 1.794C14.0792 1.794 13.5939 1.91966 13.1606 2.171C12.7272 2.41366 12.3849 2.756 12.1336 3.198C11.8909 3.64 11.7696 4.14266 11.7696 4.706C11.7696 5.26933 11.8909 5.772 12.1336 6.214C12.3849 6.656 12.7272 7.00266 13.1606 7.254C13.5939 7.49666 14.0792 7.618 14.6166 7.618ZM23.5864 1.872H20.6744V0.155996H28.6044V1.872H25.6924V9.256H23.5864V1.872ZM35.9235 7.306H31.6985L30.8925 9.256H28.7345L32.7905 0.155996H34.8705L38.9395 9.256H36.7295L35.9235 7.306ZM35.2605 5.707L33.8175 2.223L32.3745 5.707H35.2605ZM41.9616 1.872H39.0496V0.155996H46.9796V1.872H44.0676V9.256H41.9616V1.872ZM55.8087 7.566V9.256H48.7627V0.155996H55.6397V1.846H50.8557V3.822H55.0807V5.46H50.8557V7.566H55.8087Z" fill="black" fill-opacity="0.6"/>
</svg>
